# xmcd
#
# Track frame offsets:
#	150
#	12912
#	24705
#	41215
#	52705
#	69055
#	85392
#	103965
#	118927
#	135955
#	155055
#	167950
#	187872
#	202012
#	220837
#	236122
#	247327
#	266050
#	282577
#	296617
#
# Disc length: 4166 seconds
#
# Revision: 1
# Processed by: cddbd v1.5.2PL0 Copyright (c) Steve Scherf et al.
# Submitted via: EZCDAudioConverter 2.0.7.1
#
DISCID=34104414
DTITLE=Lisa Hill - Music Box
DYEAR=1900
DGENRE=
TTITLE0=Full Moon Full of Love
TTITLE1=Yippee Ti Yi Yo
TTITLE2=The Quilt Song
TTITLE3=I Would
TTITLE4=River of Change
TTITLE5=Ballerina Girl
TTITLE6=Playing with Angels
TTITLE7=Guardian Angel
TTITLE8=Walking Stick
TTITLE9=Half of Me
TTITLE10=Anniversary Song
TTITLE11=Indian Song
TTITLE12=Ohio
TTITLE13=I've Had It
TTITLE14=I Loved You
TTITLE15=Promised Land
TTITLE16=Song For A Someone
TTITLE17=Truckin' Man
TTITLE18=Best Friend's baby
TTITLE19=She'll Take Anything
EXTD=
EXTT0=
EXTT1=
EXTT2=
EXTT3=
EXTT4=
EXTT5=
EXTT6=
EXTT7=
EXTT8=
EXTT9=
EXTT10=
EXTT11=
EXTT12=
EXTT13=
EXTT14=
EXTT15=
EXTT16=
EXTT17=
EXTT18=
EXTT19=
PLAYORDER=
